<mxfile host="embed.diagrams.net" modified="2025-07-04T18:20:12.345Z" agent="GitHub Copilot" etag="XyZ1AbCdEfGhIjKl" version="24.6.4" type="embed">
  <diagram name="Expression Tree Evaluation Sequence" id="bCdEfGh-67890">
    <mxGraphModel dx="1434" dy="746" grid="1" gridSize="10" guides="1" tooltips="1" connect="1" arrows="1" fold="1" page="1" pageScale="1" pageWidth="1100" pageHeight="850" math="0" shadow="0">
      <root>
        <mxCell id="0" />
        <mxCell id="1" parent="0" />
        <mxCell id="ExecutorLifeline" value="executor: SeqScanExecutor" style="shape=umlLifeline;perimeter=lifelinePerimeter;whiteSpace=wrap;html=1;container=1;collapsible=0;recursiveResize=0;outlineConnect=0;" parent="1" vertex="1">
          <mxGeometry x="80" y="40" width="180" height="500" as="geometry" />
        </mxCell>
        <mxCell id="ExecutorActivation" value="" style="html=1;points=[];perimeter=orthogonalPerimeter;fillColor=#FFFFFF;" parent="ExecutorLifeline" vertex="1">
          <mxGeometry x="85" y="80" width="10" height="380" as="geometry" />
        </mxCell>
        <mxCell id="AndLifeline" value="root: LogicExpression (AND)" style="shape=umlLifeline;perimeter=lifelinePerimeter;whiteSpace=wrap;html=1;container=1;collapsible=0;recursiveResize=0;outlineConnect=0;" parent="1" vertex="1">
          <mxGeometry x="340" y="40" width="180" height="500" as="geometry" />
        </mxCell>
        <mxCell id="AndActivation" value="" style="html=1;points=[];perimeter=orthogonalPerimeter;fillColor=#FFFFFF;" parent="AndLifeline" vertex="1">
          <mxGeometry x="85" y="80" width="10" height="340" as="geometry" />
        </mxCell>
        <mxCell id="GreaterThanLifeline" value="child1: ComparisonExpression (&amp;gt;)" style="shape=umlLifeline;perimeter=lifelinePerimeter;whiteSpace=wrap;html=1;container=1;collapsible=0;recursiveResize=0;outlineConnect=0;" parent="1" vertex="1">
          <mxGeometry x="600" y="40" width="200" height="500" as="geometry" />
        </mxCell>
        <mxCell id="GreaterThanActivation" value="" style="html=1;points=[];perimeter=orthogonalPerimeter;fillColor=#FFFFFF;" parent="GreaterThanLifeline" vertex="1">
          <mxGeometry x="95" y="120" width="10" height="60" as="geometry" />
        </mxCell>
        <mxCell id="EqualsLifeline" value="child2: ComparisonExpression (=)" style="shape=umlLifeline;perimeter=lifelinePerimeter;whiteSpace=wrap;html=1;container=1;collapsible=0;recursiveResize=0;outlineConnect=0;" parent="1" vertex="1">
          <mxGeometry x="860" y="40" width="200" height="500" as="geometry" />
        </mxCell>
        <mxCell id="EqualsActivation" value="" style="html=1;points=[];perimeter=orthogonalPerimeter;fillColor=#FFFFFF;" parent="EqualsLifeline" vertex="1">
          <mxGeometry x="95" y="240" width="10" height="60" as="geometry" />
        </mxCell>
        <mxCell id="Msg_ExecutorToAnd" value="Evaluate(tuple)" style="edgeStyle=orthogonalEdgeStyle;rounded=0;orthogonalLoop=1;jettySize=auto;html=1;endArrow=classic;endFill=1;" edge="1" parent="1" source="ExecutorActivation" target="AndActivation">
          <mxGeometry relative="1" as="geometry">
            <mxPoint x="180" y="120" as="sourcePoint" />
            <mxPoint x="430" y="120" as="targetPoint" />
          </mxGeometry>
        </mxCell>
        <mxCell id="Msg_AndToGreaterThan" value="Evaluate(tuple)" style="edgeStyle=orthogonalEdgeStyle;rounded=0;orthogonalLoop=1;jettySize=auto;html=1;endArrow=classic;endFill=1;" edge="1" parent="1" source="AndActivation" target="GreaterThanActivation">
          <mxGeometry relative="1" as="geometry">
            <mxPoint x="430" y="160" as="sourcePoint" />
            <mxPoint x="690" y="160" as="targetPoint" />
          </mxGeometry>
        </mxCell>
        <mxCell id="Msg_GreaterThanToAnd_Return" value="return Value(true)" style="edgeStyle=orthogonalEdgeStyle;rounded=0;orthogonalLoop=1;jettySize=auto;html=1;endArrow=open;endFill=0;dashed=1;" edge="1" parent="1" source="GreaterThanActivation" target="AndActivation">
          <mxGeometry relative="1" as="geometry">
            <mxPoint x="690" y="200" as="sourcePoint" />
            <mxPoint x="430" y="200" as="targetPoint" />
          </mxGeometry>
        </mxCell>
        <mxCell id="Msg_AndToEquals" value="Evaluate(tuple)" style="edgeStyle=orthogonalEdgeStyle;rounded=0;orthogonalLoop=1;jettySize=auto;html=1;endArrow=classic;endFill=1;" edge="1" parent="1" source="AndActivation" target="EqualsActivation">
          <mxGeometry relative="1" as="geometry">
            <mxPoint x="430" y="280" as="sourcePoint" />
            <mxPoint x="950" y="280" as="targetPoint" />
          </mxGeometry>
        </mxCell>
        <mxCell id="Msg_EqualsToAnd_Return" value="return Value(true)" style="edgeStyle=orthogonalEdgeStyle;rounded=0;orthogonalLoop=1;jettySize=auto;html=1;endArrow=open;endFill=0;dashed=1;" edge="1" parent="1" source="EqualsActivation" target="AndActivation">
          <mxGeometry relative="1" as="geometry">
            <mxPoint x="950" y="320" as="sourcePoint" />
            <mxPoint x="430" y="320" as="targetPoint" />
          </mxGeometry>
        </mxCell>
        <mxCell id="Note_CombineResults" value="Combines results: &lt;br&gt;true AND true = true" style="shape=note;whiteSpace=wrap;html=1;backgroundOutline=1;darkOpacity=0.05;" vertex="1" parent="AndActivation">
          <mxGeometry x="20" y="200" width="140" height="50" as="geometry" />
        </mxCell>
        <mxCell id="Msg_AndToExecutor_Return" value="return Value(true)" style="edgeStyle=orthogonalEdgeStyle;rounded=0;orthogonalLoop=1;jettySize=auto;html=1;endArrow=open;endFill=0;dashed=1;" edge="1" parent="1" source="AndActivation" target="ExecutorActivation">
          <mxGeometry relative="1" as="geometry">
            <mxPoint x="430" y="440" as="sourcePoint" />
            <mxPoint x="180" y="440" as="targetPoint" />
          </mxGeometry>
        </mxCell>
      </root>
    </mxGraphModel>
  </diagram>
</mxfile>